# xmcd
#
# Track frame offsets:
#	150
#	19291
#	45806
#	71551
#	90451
#	120080
#	146302
#	171784
#	198640
#
# Disc length: 2932 seconds
#
# Revision: 1
# Processed by: cddbd v1.5.2PL0 Copyright (c) Steve Scherf et al.
# Submitted via: audiograbber 1.83.01
#
DISCID=6a0b7209
DTITLE=15-60-75 - The Inward City
DYEAR=2009
DGENRE=Blues
TTITLE0=Battery B
TTITLE1=Yonders Wall
TTITLE2=Thunderhead
TTITLE3=Nobody's John
TTITLE4=Heavy Rain
TTITLE5=From Me to You
TTITLE6=Mrachbox Defined
TTITLE7=The Tellsusyourvision
TTITLE8=Coal Tattoo
EXTD=
EXTT0=
EXTT1=
EXTT2=
EXTT3=
EXTT4=
EXTT5=
EXTT6=
EXTT7=
EXTT8=
PLAYORDER=
